<svg width="227" height="272" viewBox="0 0 227 272" fill="none" xmlns="http://www.w3.org/2000/svg">
<path fill-rule="evenodd" clip-rule="evenodd" d="M221.485 0.000244141L141.363 0.420295C138.572 0.454838 135.785 0.65252 133.018 1.01288C122.908 2.29541 115.118 10.544 114.419 20.7048H112.424C111.726 10.544 103.936 2.29505 93.8263 1.01288C91.0578 0.652428 88.2704 0.454746 85.4787 0.420295L5.48851 0.000244141L40.8412 50.731H100.004V193.305C100.007 193.319 100.017 193.353 100.026 193.386L100.068 193.569C101.31 199.81 106.779 204.312 113.145 204.336H113.699C120.066 204.313 125.535 199.811 126.777 193.57L126.819 193.387C126.828 193.353 126.838 193.32 126.843 193.285V50.7307H186.168L221.485 0.000336257L221.485 0.000244141ZM113.663 271.077C86.8708 270.96 61.9651 257.276 47.5106 234.731C33.105 215.773 19.854 195.077 10.5928 176.204C3.68039 162.11 1.57447 147.373 0.822266 136.829V0.308005L37.7012 53.0415C37.3546 99.5318 37.0317 145.732 37.0288 190.849C37.0288 232.252 71.1914 266.45 113.664 266.639C156.137 266.45 190.299 232.252 190.299 190.849C190.297 145.732 189.973 99.5318 189.627 53.0415L226.502 0.309018V136.83C225.75 147.374 223.645 162.111 216.732 176.205C207.471 195.078 194.22 215.774 179.814 234.732C165.36 257.276 140.454 270.96 113.663 271.077Z" fill="#0B1D57"/>
</svg>
