<?xml version="1.0" encoding="UTF-8"?>
<!DOCTYPE svg PUBLIC "-//W3C//DTD SVG 1.0//EN" "http://www.w3.org/TR/2001/REC-SVG-20010904/DTD/svg10.dtd">
<!-- Creator: CorelDRAW 2018 (64-Bit) -->
<svg xmlns="http://www.w3.org/2000/svg" xml:space="preserve" width="374.666mm" height="425.812mm" version="1.0" style="shape-rendering:geometricPrecision; text-rendering:geometricPrecision; image-rendering:optimizeQuality; fill-rule:evenodd; clip-rule:evenodd"
viewBox="0 0 37538.96 42663.4"
 xmlns:xlink="http://www.w3.org/1999/xlink">
 <defs>
  <style type="text/css">
   <![CDATA[
    .fil0 {fill:#0B1D57}
   ]]>
  </style>
 </defs>
 <g id="Слой_x0020_1">
  <metadata id="CorelCorpID_0Corel-Layer"/>
  <path class="fil0" d="M30430.95 0l-8692.72 45.6c-302.81,3.75 -605.16,25.21 -905.45,64.33 -1096.82,139.23 -1942.05,1034.68 -2017.8,2137.72l-216.49 0c-75.68,-1103.04 -920.9,-1998.53 -2017.73,-2137.72 -300.37,-39.13 -602.78,-60.59 -905.66,-64.33l-8678.47 -45.6 3835.56 5507.25 6418.81 0 0 15477.6c0.35,1.55 1.45,5.16 2.37,8.77l4.59 19.87c134.74,677.48 728.05,1166.31 1418.82,1168.88l60.09 0c690.73,-2.47 1284.08,-491.24 1418.85,-1168.71l4.6 -19.86c0.88,-3.72 1.97,-7.28 2.54,-11.1l0 -15475.48 6436.48 0 3831.6 -5507.21zm-11698.04 29427.7c-2906.78,-12.72 -5608.9,-1498.24 -7177.13,-3945.73 -1562.92,-2058 -3000.58,-4304.73 -4005.36,-6353.56 -749.96,-1530.02 -978.44,-3129.88 -1060.05,-4274.48l0 -14820.52 4001.15 5724.66c-37.61,5046.92 -72.64,10062.37 -72.95,14960.17 0,4494.62 3706.44,8207.06 8314.51,8227.67 4608.05,-20.61 8314.42,-3733.05 8314.42,-8227.67 -0.25,-4897.81 -35.35,-9913.25 -72.89,-14960.17l4000.73 -5724.55 0 14820.52c-81.61,1144.61 -310.02,2744.47 -1059.98,4274.48 -1004.85,2048.82 -2442.44,4295.55 -4005.4,6353.56 -1568.22,2447.41 -4270.35,3932.9 -7177.05,3945.62z"/>
  <path class="fil0" d="M34297.65 32539.4c0,-134.98 -41.46,-236.36 -124.42,-303.98 -78.67,-65.74 -178.1,-101.55 -280.64,-101.08 -104.13,-1.52 -205.15,35.67 -283.44,104.27 -76.67,81.58 -120.04,188.88 -121.63,300.79l0 7289.06c0,134.99 40.55,236.33 121.63,303.95 79.13,66.84 179.84,102.78 283.44,101.08 105.43,4.81 208.78,-30.26 289.48,-98.26 79,-82.08 120.78,-193.02 115.58,-306.8l0 -4454.29 1620.64 0c218.09,-6.92 429.07,78.11 581.44,234.34 151.14,152.83 233.71,360.53 228.69,575.43l0 3644.55c0,134.99 40.51,236.33 121.55,303.95 79.17,66.87 179.88,102.78 283.48,101.12 105.43,4.8 208.78,-30.3 289.48,-98.3 79,-82.08 120.81,-193.02 115.58,-306.77l0 -3644.55c7.56,-433.12 -166.65,-849.61 -480.32,-1148.38 -299.91,-305.85 -711.58,-476.18 -1139.91,-471.52l-1620.64 0 0 -2024.61zm-1804.76 7561.2c63.23,-76.85 98.93,-172.67 101.48,-272.13 -0.63,-105.57 -43.37,-206.49 -118.8,-280.33 -73.27,-80.4 -177.47,-125.72 -286.26,-124.38l-1215.72 0c-108.44,-2.22 -215.83,-21.81 -318.11,-58 -93.53,-47.01 -180.97,-105.29 -260.39,-173.51 -152.52,-153.47 -236.07,-362.33 -231.52,-578.61l0 -2429.71c-0.74,-107.77 18.88,-214.79 57.93,-315.28 38.91,-98.86 98.05,-188.57 173.58,-263.33 153.58,-152.27 362.4,-235.72 578.6,-231.17l1215.58 0c134.99,0 236.19,-44.43 303.58,-133.26 63.23,-76.73 98.9,-172.41 101.49,-271.8 -0.64,-105.61 -43.37,-206.64 -118.8,-280.61 -73.38,-80.34 -177.51,-125.58 -286.27,-124.46l-1215.68 0c-894.6,-0.24 -1620.08,724.78 -1620.33,1619.45l0 0.45 0 2429.71c-8.59,434.69 166.94,852.83 483.25,1151.19 322.07,312.45 701.09,468.68 1137.08,468.68l1215.54 0c135.02,0.04 236.22,-44.29 303.65,-132.9l0.11 0zm-4437.85 -2296.77c269.97,0 405.02,-135.03 405.1,-405.07l0 -1214.84c7.52,-433.12 -166.69,-849.61 -480.4,-1148.38 -299.91,-305.88 -711.68,-476.18 -1140.08,-471.52l-810.34 0c-434.86,-8.52 -853.07,166.98 -1151.64,483.18 -312.52,322.04 -468.79,700.91 -468.79,1136.72l0 2429.71c-7.59,433.13 166.59,849.69 480.36,1148.39 299.87,306.02 711.65,476.32 1140.08,471.52l2025.57 0c134.95,0 236.25,-44.33 303.94,-132.94 63.16,-76.88 98.79,-172.67 101.31,-272.13 -0.64,-105.54 -43.34,-206.42 -118.66,-280.33 -73.27,-80.4 -177.47,-125.72 -286.27,-124.38l-2025.88 0c-108.44,-2.22 -215.82,-21.81 -318.11,-57.96 -93.56,-47.01 -181.01,-105.33 -260.42,-173.55 -152.48,-153.47 -236.08,-362.33 -231.49,-578.61l0 -809.8 2835.73 0zm-2835.76 -1619.91c-0.75,-107.77 18.87,-214.75 57.86,-315.28 38.99,-98.86 98.08,-188.57 173.61,-263.33 153.62,-152.27 362.47,-235.72 578.71,-231.17l810.06 0c218.19,-6.92 429.24,78.08 581.61,234.34 151.18,152.83 233.71,360.53 228.62,575.43l0 809.81 -2430.48 0 0 -809.81zm-2965.03 -3644.51c0,-134.98 -41.49,-236.36 -124.45,-303.98 -78.71,-65.74 -178.1,-101.55 -280.64,-101.08 -104.2,-1.48 -205.23,35.67 -283.62,104.27 -76.67,81.58 -120,188.88 -121.48,300.79l0 2024.61 -907.76 0c-114.31,-5.76 -224.69,42.56 -298.06,130.46 -141.74,160.76 -142.98,401.53 -2.87,563.74 80.02,78.54 188.92,120.49 300.93,115.93l907.76 0 0 4454.32c0,134.99 40.47,236.33 121.48,303.95 79.2,66.84 179.95,102.75 283.62,101.12 203.76,19.9 385.12,-129.2 405.09,-332.96 2.33,-24.01 2.33,-48.18 0,-72.11l0 -4454.32 1287.12 0c134.99,0 236.33,-44.43 303.95,-133.22 63.12,-76.77 98.79,-172.45 101.27,-271.84 -0.6,-105.58 -43.3,-206.6 -118.62,-280.61 -73.42,-80.37 -177.61,-125.62 -286.48,-124.46l-1287.23 0 0 -2024.61zm-3611.15 8503.9c6.96,218.12 -78.11,429.1 -234.44,581.4 -153.01,151.14 -360.82,233.64 -575.82,228.73l-1620.36 0c-135.13,0 -236.47,40.5 -303.98,121.55 -66.91,79.13 -102.89,179.84 -101.31,283.51 -1.34,104.06 35.77,205 104.2,283.44 83.17,74.19 189.6,117.07 300.94,121.23l1620.39 0c433.16,7.56 849.72,-166.51 1148.77,-479.95 305.96,-299.88 476.29,-711.55 471.63,-1139.91l0 -6074.22c0,-135.02 -41.47,-236.22 -124.42,-303.62 -78.61,-65.99 -178.04,-101.9 -280.65,-101.45 -104.2,-1.48 -205.22,35.67 -283.62,104.27 -76.56,81.62 -119.89,188.89 -121.51,300.8l0 4454.67 -1620.36 0c-108.44,-2.22 -215.86,-21.81 -318.11,-57.96 -93.56,-47.01 -181.01,-105.33 -260.43,-173.55 -152.48,-153.47 -236.07,-362.33 -231.48,-578.61l0 -3644.54c0,-135.02 -41.46,-236.22 -124.45,-303.62 -78.58,-65.99 -178.04,-101.9 -280.69,-101.45 -104.12,-1.48 -205.15,35.67 -283.54,104.27 -76.6,81.62 -119.97,188.89 -121.55,300.8l0 3644.54c-8.56,434.69 166.97,852.83 483.24,1151.19 322.07,312.45 701.16,468.72 1137.19,468.72l1620.43 0 0 809.73 -0.08 0.04zm-3948.17 -942.71c63.13,-76.88 98.79,-172.67 101.27,-272.13 -0.6,-105.54 -43.29,-206.42 -118.62,-280.33 -73.34,-80.44 -177.58,-125.75 -286.48,-124.38 -107.98,-1.62 -210.56,-47.68 -283.58,-127.28 -81.02,-92.58 -121.51,-185.18 -121.51,-277.79l0 -6479.29c0,-134.98 -41.47,-236.36 -124.42,-303.98 -78.68,-65.74 -178.11,-101.55 -280.68,-101.08 -104.17,-1.48 -205.19,35.67 -283.59,104.27 -76.66,81.58 -120.03,188.88 -121.55,300.79l0 6479.29c0,323.76 118.66,607.2 355.94,850.39 222.64,236.68 534.5,368.94 859.4,364.45 134.99,0 236.26,-44.33 303.81,-132.94l0.03 0zm-3727.43 -954.7c-181.15,180.45 -427.19,280.54 -682.89,277.86l-486.15 0c-536.58,-0.67 -971.44,-435.46 -972.25,-972.01l0 -2105.94c0.74,-536.55 435.7,-971.27 972.25,-971.66l486.12 0c260.46,-5.55 511.27,98.26 691.57,286.34 182.98,180.69 284.33,428.21 280.68,685.32l0 2105.94c6.54,261.98 -98.68,514.39 -289.38,694.16l0.04 0zm1099.57 -2800.09c8.56,-476.93 -183.58,-935.5 -529.51,-1263.93 -353.04,-345.01 -770.68,-517.61 -1252.94,-517.86l-486.15 0c-477.1,-7.06 -935.11,187.23 -1261.63,535.14 -347.21,357.03 -520.82,772.56 -520.82,1246.65l0 2105.94c0,501.56 176.52,923.8 529.51,1266.76 353.04,343.56 770.68,515.24 1252.94,515.03l486.12 0c477.13,8.66 935.92,-183.48 1264.5,-529.52 345.26,-352.72 517.92,-770.18 517.96,-1252.27l0 -2105.94 0.03 0zm-6277.42 647.92c893.61,-2.36 1617.61,-725.97 1620.4,-1619.58l0 -1619.9c2.76,-891.88 -718.09,-1617.15 -1610.01,-1619.86 -3.46,-0.04 -6.92,-0.04 -10.39,0l-2835.87 0c-270.11,0 -405.13,134.98 -405.09,405.02l0 7289.06c0,134.99 40.5,236.33 121.51,303.95 79.24,66.84 179.95,102.75 283.58,101.12 203.84,19.86 385.24,-129.3 405.1,-333.1 2.33,-23.97 2.33,-48.07 0,-71.97l0 -2834.74 2430.77 0zm-2430.77 -4049.61l2430.77 0c218.16,-6.92 429.24,78.08 581.62,234.35 151.13,153 233.63,360.81 228.58,575.78l0 1619.9c0,238.97 -79.07,433.73 -237.28,584.27 -153.37,148.39 -359.54,229.54 -572.92,225.5l-2430.77 0 0 -3239.8zm-3248.81 -121.19c77.44,79.42 184.25,123.29 295.14,121.19 108.76,1.27 212.88,-43.82 286.3,-124.06 75.29,-74.05 117.95,-175.04 118.62,-280.65 0.42,-111.12 -49.6,-216.42 -135.98,-286.3 -90.69,-79.17 -180.4,-118.72 -269.12,-118.72 -223.63,0.1 -404.92,181.39 -405.03,405.02 0.28,104.87 39.49,205.86 109.96,283.52l0.11 0zm700.23 2146.16c0,-135.02 -41.46,-236.22 -124.41,-303.62 -78.61,-65.99 -178.07,-101.9 -280.68,-101.45 -104.17,-1.48 -205.19,35.67 -283.59,104.27 -76.56,81.62 -119.93,188.89 -121.51,300.8l0 4859.38c0,134.99 40.51,236.33 121.51,303.95 79.24,66.84 179.95,102.75 283.59,101.12 203.8,19.9 385.19,-129.2 405.09,-332.96 2.33,-24.01 2.33,-48.18 0,-72.11l0 -4859.38z"/>
 </g>
</svg>
